<?xml version="1.0" encoding="UTF-8" standalone="no"?>
<!DOCTYPE svg PUBLIC "-//W3C//DTD SVG 1.1//EN" "http://www.w3.org/Graphics/SVG/1.1/DTD/svg11.dtd">
<!-- Created with Vectornator (http://vectornator.io/) -->
<svg height="100%" stroke-miterlimit="10" style="fill-rule:nonzero;clip-rule:evenodd;stroke-linecap:round;stroke-linejoin:round;" version="1.1" viewBox="0 0 575 300" width="100%" xml:space="preserve" xmlns="http://www.w3.org/2000/svg" xmlns:xlink="http://www.w3.org/1999/xlink">
<defs/>
<g id="Untitled">
<path d="M351.248 262.437L355.838 257.587L360.429 252.738L365.019 247.888L369.609 243.039L369.857 242.785L370.105 242.531L370.353 242.277L370.601 242.023L370.849 241.77L371.097 241.516L371.345 241.262L371.593 241.008L371.841 240.754L372.089 240.5L372.337 240.247L372.585 239.993L372.833 239.739L373.081 239.485L373.329 239.231L373.577 238.977L373.825 238.724L374.073 238.47L374.321 238.216L374.569 237.962L374.817 237.708L375.065 237.454L375.313 237.201L375.561 236.947L375.809 236.693L376.057 236.439L376.305 236.185L376.553 235.931L376.8 235.678L377.048 235.424L377.296 235.17L377.544 234.916L377.792 234.662L378.04 234.409L378.288 234.155L378.536 233.901L378.784 233.647L379.032 233.393L379.28 233.139L379.528 232.886L379.776 232.632L380.024 232.378L380.272 232.124L380.52 231.87L380.768 231.616L381.016 231.363L381.264 231.109L381.512 230.855L381.76 230.601L382.008 230.347L382.256 230.093L382.504 229.84L383.022 229.313L383.54 228.787L384.058 228.26L384.577 227.734L385.095 227.207L385.613 226.681L386.131 226.154L386.649 225.628L387.168 225.102L387.686 224.575L388.204 224.049L388.722 223.522L389.24 222.996L389.759 222.469L390.277 221.943L390.795 221.416L391.313 220.89L391.832 220.364L392.35 219.837L392.868 219.311L393.386 218.784L393.904 218.258L394.423 217.731L394.941 217.205L395.459 216.678L395.977 216.152L396.495 215.626L397.014 215.099L397.532 214.573L398.05 214.046L398.568 213.52L399.087 212.993L399.605 212.467L400.123 211.94L400.641 211.414L401.159 210.888L401.678 210.361L402.196 209.835L402.714 209.308L403.232 208.782L403.751 208.255L404.269 207.729L404.787 207.202L405.305 206.676L405.823 206.15L406.342 205.623L406.86 205.097L407.378 204.57L407.896 204.044L408.414 203.517L408.933 202.991L409.451 202.464L409.969 201.938L410.487 201.412L411.006 200.885L411.524 200.359L412.042 199.832L412.56 199.306L413.078 198.779L413.597 198.253L414.115 197.726L414.633 197.2L415.151 196.674L415.669 196.147L415.828 195.987L415.986 195.827L416.144 195.667L416.302 195.506L416.46 195.346L416.618 195.186L416.776 195.026L416.934 194.866L417.092 194.706L417.25 194.545L417.408 194.385L417.566 194.225L417.724 194.065L417.882 193.905L418.04 193.744L418.199 193.584L418.357 193.424L418.515 193.264L418.673 193.104L418.831 192.944L418.989 192.783L419.147 192.623L419.305 192.463L419.463 192.303L419.621 192.143L419.779 191.982L419.937 191.822L420.095 191.662L420.253 191.502L420.411 191.342L420.569 191.182L420.728 191.021L420.886 190.861L421.044 190.701L421.202 190.541L421.36 190.381L421.518 190.22L421.676 190.06L421.834 189.9L421.992 189.74L422.15 189.58L422.308 189.42L422.466 189.259L422.624 189.099L422.782 188.939L422.94 188.779L423.098 188.619L423.257 188.459L423.415 188.298L423.573 188.138L423.731 187.978L423.889 187.818L424.047 187.658L424.205 187.497L424.363 187.337L424.521 187.177L424.679 187.017L424.837 186.857L424.995 186.697L425.153 186.536L425.311 186.376L425.469 186.216L425.627 186.056L425.786 185.896L425.786 185.896L425.786 185.896L425.786 185.896L425.786 185.896L425.239 185.897L424.692 185.899L424.145 185.901L423.598 185.903L423.051 185.905L422.504 185.907L421.957 185.909L421.41 185.91L420.864 185.912L420.317 185.914L419.77 185.916L419.223 185.918L418.676 185.92L418.129 185.921L417.582 185.923L417.035 185.925L416.489 185.927L415.942 185.929L415.395 185.931L414.848 185.932L414.301 185.934L413.754 185.936L413.207 185.938L412.66 185.94L412.113 185.942L411.567 185.943L411.02 185.945L410.473 185.947L409.926 185.949L409.379 185.951L408.832 185.953L408.285 185.954L407.738 185.956L407.192 185.958L406.645 185.96L406.098 185.962L405.551 185.964L405.004 185.965L404.457 185.967L403.91 185.969L403.363 185.971L402.816 185.973L402.27 185.975L401.723 185.977L401.176 185.978L400.629 185.98L400.082 185.982L399.535 185.984L398.988 185.986L398.441 185.988L397.894 185.989L397.348 185.991L396.801 185.993L396.254 185.995L395.707 185.997L395.16 185.999L394.613 186L394.066 186.002L393.519 186.004L392.973 186.006L392.426 186.008L391.879 186.01L391.332 186.011L390.785 186.013L389.969 186.015L389.153 186.017L388.337 186.019L387.521 186.022L386.704 186.024L385.888 186.026L385.072 186.028L384.256 186.03L383.44 186.032L382.624 186.034L381.808 186.036L380.992 186.038L380.175 186.04L379.359 186.042L378.543 186.044L377.727 186.046L376.911 186.048L376.095 186.05L375.279 186.052L374.463 186.054L373.647 186.057L372.83 186.059L372.014 186.061L371.198 186.063L370.382 186.065L369.566 186.067L368.75 186.069L367.934 186.071L367.118 186.073L366.301 186.075L365.485 186.077L364.669 186.079L363.853 186.081L363.037 186.083L362.221 186.085L361.405 186.087L360.589 186.09L359.773 186.092L358.956 186.094L358.14 186.096L357.324 186.098L356.508 186.1L355.692 186.102L354.876 186.104L354.06 186.106L353.244 186.108L352.428 186.11L351.611 186.112L350.795 186.114L349.979 186.116L349.163 186.118L348.347 186.12L347.531 186.122L346.715 186.125L345.899 186.127L345.082 186.129L344.266 186.131L343.45 186.133L342.634 186.135L341.818 186.137L341.002 186.139L340.186 186.141L339.37 186.143L338.554 186.145L337.737 186.147L336.921 186.149L336.105 186.151L335.289 186.153L334.473 186.155L333.657 186.158L332.841 186.16L332.025 186.162L331.208 186.164L330.392 186.166L329.576 186.168L328.76 186.17L327.944 186.172L327.128 186.174L326.312 186.176L325.496 186.178L324.68 186.18L323.863 186.182L323.047 186.184L322.231 186.186L321.415 186.188L320.599 186.19L319.783 186.193L318.967 186.195L318.151 186.197L317.334 186.199L316.518 186.201L315.702 186.203L314.886 186.205L314.07 186.207L313.254 186.209L312.438 186.211L311.622 186.213L310.806 186.215L309.989 186.217L309.173 186.219L308.357 186.221L307.541 186.223L306.725 186.226L305.909 186.228L305.093 186.23L304.277 186.232L303.46 186.234L302.644 186.236L301.828 186.238L301.012 186.24L300.196 186.242L299.38 186.244L298.564 186.246L297.748 186.248L296.932 186.25L296.115 186.252L295.299 186.254L294.483 186.256L293.667 186.258L292.851 186.261L292.035 186.263L291.219 186.265L290.403 186.267L289.587 186.269L288.77 186.271L287.954 186.273L287.138 186.275L286.322 186.277L285.506 186.279L284.69 186.281L283.874 186.283L283.058 186.285L282.241 186.287L281.425 186.289L280.609 186.291L279.793 186.293L278.977 186.296L278.161 186.298L277.345 186.3L276.529 186.302L275.713 186.304L274.896 186.306L274.08 186.308L273.264 186.31L272.448 186.312L271.632 186.314L270.816 186.316L270 186.318L269.184 186.32L268.367 186.322L267.551 186.324L266.735 186.326L265.919 186.329L265.103 186.331L264.287 186.333L263.471 186.335L262.655 186.337L261.839 186.339L261.022 186.341L260.206 186.343L259.39 186.345L258.574 186.347L257.758 186.349L256.942 186.351L256.126 186.353L255.31 186.355L254.493 186.357L253.677 186.359L252.861 186.361L252.045 186.364L251.229 186.366L250.413 186.368L249.597 186.37L248.781 186.372L247.965 186.374L247.148 186.376L246.332 186.378L245.516 186.38L244.7 186.382L243.884 186.384L243.068 186.386L242.252 186.388L241.436 186.39L240.619 186.392L239.803 186.394L238.987 186.397L238.171 186.399L237.355 186.401L236.539 186.403L235.723 186.405L234.907 186.407L1 185.367L1.17863 105.768L230.647 107.224L230.647 107.224L230.647 107.224L230.647 107.224L230.647 107.224L231.402 107.221L232.156 107.218L232.91 107.215L233.665 107.212L234.419 107.209L235.174 107.206L235.928 107.203L236.682 107.2L237.437 107.197L238.191 107.194L238.946 107.191L239.7 107.188L240.454 107.185L241.209 107.182L241.963 107.179L242.718 107.176L243.472 107.173L244.226 107.17L244.981 107.167L245.735 107.164L246.49 107.161L247.244 107.158L247.998 107.155L248.753 107.152L249.507 107.149L250.262 107.146L251.016 107.143L251.771 107.139L252.525 107.136L253.279 107.133L254.034 107.13L254.788 107.127L255.543 107.124L256.297 107.121L257.051 107.118L257.806 107.115L258.56 107.112L259.315 107.109L260.069 107.106L260.823 107.103L261.578 107.1L262.332 107.097L263.087 107.094L263.841 107.091L264.595 107.088L265.35 107.085L266.104 107.082L266.859 107.079L267.613 107.076L268.367 107.073L269.122 107.07L269.876 107.067L270.631 107.064L271.385 107.061L272.139 107.058L272.894 107.054L273.648 107.051L274.403 107.048L275.157 107.045L275.911 107.042L276.666 107.039L277.42 107.036L278.175 107.033L278.929 107.03L279.683 107.027L280.438 107.024L281.192 107.021L281.947 107.018L282.701 107.015L283.455 107.012L284.21 107.009L284.964 107.006L285.719 107.003L286.473 107L287.227 106.997L287.982 106.994L288.736 106.991L289.491 106.988L290.245 106.985L290.999 106.982L291.754 106.979L292.508 106.976L293.263 106.973L294.017 106.97L294.772 106.966L295.526 106.963L296.28 106.96L297.035 106.957L297.789 106.954L298.544 106.951L299.298 106.948L300.052 106.945L300.807 106.942L301.561 106.939L302.316 106.936L303.07 106.933L303.824 106.93L304.579 106.927L305.333 106.924L306.088 106.921L306.842 106.918L307.596 106.915L308.351 106.912L309.105 106.909L309.86 106.906L310.614 106.903L311.368 106.9L312.123 106.897L312.877 106.894L313.632 106.891L314.386 106.888L315.14 106.885L315.895 106.881L316.649 106.878L317.404 106.875L318.158 106.872L318.912 106.869L319.667 106.866L320.421 106.863L321.176 106.86L321.93 106.857L322.684 106.854L323.439 106.851L324.193 106.848L324.948 106.845L325.702 106.842L326.456 106.839L327.211 106.836L327.965 106.833L328.72 106.83L329.474 106.827L330.228 106.824L330.983 106.821L331.737 106.818L332.492 106.815L333.246 106.812L334.001 106.809L334.755 106.806L335.509 106.803L336.264 106.8L337.018 106.796L337.773 106.793L338.527 106.79L339.281 106.787L340.036 106.784L340.79 106.781L341.545 106.778L342.299 106.775L343.053 106.772L343.808 106.769L344.562 106.766L345.317 106.763L346.071 106.76L346.825 106.757L347.58 106.754L348.334 106.751L349.089 106.748L349.843 106.745L350.597 106.742L351.352 106.739L352.106 106.736L352.861 106.733L353.615 106.73L354.369 106.727L355.124 106.724L355.878 106.721L356.633 106.718L357.387 106.715L358.141 106.711L358.896 106.708L359.65 106.705L360.405 106.702L361.159 106.699L361.913 106.696L362.668 106.693L363.422 106.69L364.177 106.687L364.931 106.684L365.685 106.681L366.44 106.678L367.194 106.675L367.949 106.672L368.703 106.669L369.457 106.666L370.212 106.663L370.966 106.66L371.721 106.657L372.475 106.654L373.229 106.651L373.984 106.648L374.738 106.645L375.493 106.642L376.247 106.639L377.002 106.636L377.756 106.633L378.51 106.63L379.265 106.626L380.019 106.623L380.774 106.62L381.528 106.617L382.282 106.614L383.037 106.611L383.791 106.608L384.546 106.605L385.3 106.602L386.054 106.599L386.809 106.596L387.563 106.593L388.318 106.59L389.072 106.587L389.826 106.584L390.581 106.581L391.335 106.578L392.09 106.575L392.844 106.572L393.598 106.569L394.353 106.566L395.107 106.563L395.862 106.56L396.616 106.557L397.37 106.554L398.125 106.551L398.879 106.548L399.634 106.545L400.388 106.542L401.142 106.538L401.897 106.535L402.651 106.532L403.406 106.529L404.16 106.526L404.914 106.523L405.669 106.52L406.423 106.517L407.178 106.514L407.932 106.511L408.686 106.508L409.441 106.505L410.195 106.502L410.95 106.499L411.704 106.496L412.458 106.493L413.213 106.49L413.967 106.487L414.722 106.484L415.476 106.481L416.231 106.478L416.985 106.475L417.739 106.472L418.494 106.469L419.248 106.466L420.003 106.463L420.757 106.46L421.511 106.457L422.266 106.453L423.02 106.45L423.775 106.447L423.775 106.447L423.775 106.447L423.775 106.447L423.775 106.447L423.482 106.161L423.189 105.874L422.897 105.587L422.604 105.3L422.311 105.014L422.019 104.727L421.726 104.44L421.434 104.153L421.141 103.867L420.848 103.58L420.556 103.293L420.263 103.006L419.971 102.72L419.678 102.433L419.385 102.146L419.093 101.859L418.8 101.573L418.508 101.286L418.215 100.999L417.922 100.712L417.63 100.426L417.337 100.139L417.045 99.852L416.752 99.5653L416.459 99.2785L416.167 98.9918L415.874 98.705L415.582 98.4183L415.289 98.1315L414.996 97.8447L414.704 97.558L414.411 97.2712L414.118 96.9845L413.826 96.6977L413.533 96.411L413.241 96.1242L412.948 95.8375L412.655 95.5507L412.363 95.2639L412.07 94.9772L411.778 94.6904L411.485 94.4037L411.192 94.1169L410.9 93.8302L410.607 93.5434L410.315 93.2566L410.022 92.9699L409.729 92.6831L409.437 92.3964L409.144 92.1096L408.852 91.8229L408.559 91.5361L408.266 91.2494L407.974 90.9626L407.681 90.6758L407.389 90.3891L407.096 90.1023L406.803 89.8156L406.511 89.5288L406.218 89.2421L405.925 88.9553L405.633 88.6686L405.34 88.3818L405.048 88.095L404.755 87.8083L404.462 87.5215L404.17 87.2348L403.877 86.948L403.585 86.6613L403.292 86.3745L402.999 86.0878L402.707 85.801L402.414 85.5142L402.122 85.2275L401.829 84.9407L401.536 84.654L401.244 84.3672L400.951 84.0805L400.659 83.7937L400.366 83.507L400.073 83.2202L399.781 82.9334L399.488 82.6467L399.195 82.3599L398.903 82.0732L398.61 81.7864L398.318 81.4997L398.025 81.2129L397.732 80.9262L397.44 80.6394L397.147 80.3526L396.855 80.0659L396.562 79.7791L396.269 79.4924L395.977 79.2056L395.684 78.9189L395.392 78.6321L395.099 78.3454L394.806 78.0586L394.514 77.7718L394.221 77.4851L393.929 77.1983L393.636 76.9116L393.343 76.6248L393.051 76.3381L392.758 76.0513L392.466 75.7646L392.173 75.4778L391.88 75.191L391.588 74.9043L391.295 74.6175L391.002 74.3308L390.71 74.044L390.417 73.7573L390.125 73.4705L389.832 73.1838L389.539 72.897L389.247 72.6102L388.954 72.3235L388.662 72.0367L388.369 71.75L388.076 71.4632L387.784 71.1765L387.491 70.8897L387.199 70.603L386.906 70.3162L386.613 70.0294L386.321 69.7427L386.028 69.4559L385.736 69.1692L385.443 68.8824L385.15 68.5957L384.858 68.3089L384.565 68.0222L384.272 67.7354L383.98 67.4486L383.687 67.1619L383.395 66.8751L383.102 66.5884L382.809 66.3016L382.517 66.0149L382.224 65.7281L381.932 65.4414L381.639 65.1546L381.346 64.8678L381.054 64.5811L380.761 64.2943L380.469 64.0076L380.176 63.7208L379.883 63.4341L379.591 63.1473L379.298 62.8606L379.006 62.5738L378.713 62.287L378.42 62.0003L378.128 61.7135L377.835 61.4268L377.543 61.14L377.25 60.8533L376.957 60.5665L376.665 60.2798L376.372 59.993L376.079 59.7062L375.787 59.4195L375.494 59.1327L375.202 58.846L374.909 58.5592L374.616 58.2725L374.324 57.9857L374.031 57.699L373.739 57.4122L373.446 57.1254L373.153 56.8387L372.861 56.5519L372.568 56.2652L372.276 55.9784L371.983 55.6917L371.69 55.4049L371.398 55.1181L371.105 54.8314L370.813 54.5446L370.52 54.2579L370.227 53.9711L369.935 53.6844L369.642 53.3976L369.349 53.1109L369.057 52.8241L368.764 52.5373L368.472 52.2506L368.179 51.9638L367.886 51.6771L367.594 51.3903L367.301 51.1036L367.009 50.8168L366.716 50.5301L366.423 50.2433L366.131 49.9565L365.838 49.6698L365.546 49.383L365.253 49.0963L364.96 48.8095L364.668 48.5228L364.375 48.236L364.083 47.9493L363.79 47.6625L363.497 47.3757L363.205 47.089L362.912 46.8022L362.62 46.5155L362.327 46.2287L362.034 45.942L361.742 45.6552L361.449 45.3685L361.156 45.0817L360.864 44.7949L360.571 44.5082L360.279 44.2214L359.986 43.9347L359.693 43.6479L359.401 43.3612L359.108 43.0744L358.816 42.7877L358.523 42.5009L358.23 42.2141L357.938 41.9274L357.645 41.6406L357.353 41.3539L357.06 41.0671L356.767 40.7804L356.475 40.4936L356.182 40.2069L355.89 39.9201L355.597 39.6333L355.304 39.3466L355.012 39.0598L354.719 38.7731L354.426 38.4863L354.134 38.1996L353.841 37.9128L353.549 37.6261L353.256 37.3393L352.963 37.0525L352.671 36.7658L352.378 36.479L352.086 36.1923L351.793 35.9055L351.5 35.6188L351.208 35.332L350.915 35.0453L350.623 34.7585L350.33 34.4717L350.037 34.185L349.745 33.8982L349.452 33.6115L349.16 33.3247L348.867 33.038L348.867 33.038L348.867 33.038L348.867 33.038L348.867 33.038L349.105 32.9284L349.342 32.8189L349.58 32.7094L349.817 32.5999L350.055 32.4903L350.292 32.3808L350.53 32.2713L350.767 32.1618L351.005 32.0523L351.243 31.9427L351.48 31.8332L351.718 31.7237L351.955 31.6142L352.193 31.5046L352.43 31.3951L352.668 31.2856L352.906 31.1761L353.143 31.0665L353.381 30.957L353.618 30.8475L353.856 30.738L354.093 30.6285L354.331 30.5189L354.569 30.4094L354.806 30.2999L355.044 30.1904L355.281 30.0808L355.519 29.9713L355.756 29.8618L355.994 29.7523L356.232 29.6427L356.469 29.5332L356.707 29.4237L356.944 29.3142L357.182 29.2046L357.419 29.0951L357.657 28.9856L357.895 28.8761L358.132 28.7666L358.37 28.657L358.607 28.5475L358.845 28.438L359.082 28.3285L359.32 28.2189L359.558 28.1094L359.795 27.9999L360.033 27.8904L360.27 27.7808L360.508 27.6713L360.745 27.5618L360.983 27.4523L361.221 27.3428L361.458 27.2332L361.696 27.1237L361.933 27.0142L362.171 26.9047L362.408 26.7951L362.646 26.6856L362.883 26.5761L363.121 26.4666L363.359 26.357L363.596 26.2475L363.834 26.138L364.071 26.0285L364.309 25.919L364.546 25.8094L364.784 25.6999L365.022 25.5904L365.259 25.4809L365.497 25.3713L365.734 25.2618L365.972 25.1523L366.209 25.0428L366.447 24.9332L366.685 24.8237L366.922 24.7142L367.16 24.6047L367.397 24.4951L367.635 24.3856L367.872 24.2761L368.11 24.1666L368.348 24.0571L368.585 23.9475L368.823 23.838L369.06 23.7285L369.298 23.619L369.535 23.5094L369.773 23.3999L370.011 23.2904L370.248 23.1809L370.486 23.0713L370.723 22.9618L370.961 22.8523L371.198 22.7428L371.436 22.6333L371.674 22.5237L371.911 22.4142L372.149 22.3047L372.386 22.1952L372.624 22.0856L372.861 21.9761L373.099 21.8666L373.336 21.7571L373.574 21.6475L373.812 21.538L374.049 21.4285L374.287 21.319L374.524 21.2094L374.762 21.0999L374.999 20.9904L375.237 20.8809L375.475 20.7714L375.712 20.6618L375.95 20.5523L376.187 20.4428L376.425 20.3333L376.662 20.2237L376.9 20.1142L377.138 20.0047L377.375 19.8952L377.613 19.7856L377.85 19.6761L378.088 19.5666L378.325 19.4571L378.563 19.3476L378.801 19.238L379.038 19.1285L379.276 19.019L379.513 18.9095L379.751 18.7999L379.988 18.6904L380.226 18.5809L380.464 18.4714L380.701 18.3618L380.939 18.2523L381.176 18.1428L381.414 18.0333L381.651 17.9237L381.889 17.8142L382.127 17.7047L382.364 17.5952L382.602 17.4857L382.839 17.3761L383.077 17.2666L383.314 17.1571L383.552 17.0476L383.79 16.938L384.027 16.8285L384.265 16.719L384.502 16.6095L384.74 16.4999L384.977 16.3904L385.215 16.2809L385.452 16.1714L385.69 16.0619L385.928 15.9523L386.165 15.8428L386.403 15.7333L386.64 15.6238L386.878 15.5142L387.115 15.4047L387.353 15.2952L387.591 15.1857L387.828 15.0761L388.066 14.9666L388.303 14.8571L388.541 14.7476L388.778 14.6381L389.016 14.5285L389.254 14.419L389.491 14.3095L389.729 14.2L389.966 14.0904L390.204 13.9809L390.441 13.8714L390.679 13.7619L390.917 13.6523L391.154 13.5428L391.392 13.4333L391.629 13.3238L391.867 13.2142L392.104 13.1047L392.342 12.9952L392.58 12.8857L392.817 12.7762L393.055 12.6666L393.292 12.5571L393.53 12.4476L393.767 12.3381L394.005 12.2285L394.243 12.119L394.48 12.0095L394.718 11.9L394.955 11.7904L395.193 11.6809L395.43 11.5714L395.668 11.4619L395.905 11.3524L396.143 11.2428L396.381 11.1333L396.618 11.0238L396.856 10.9143L397.093 10.8047L397.331 10.6952L397.568 10.5857L397.806 10.4762L398.044 10.3666L398.281 10.2571L398.519 10.1476L398.756 10.0381L398.994 9.92855L399.231 9.81903L399.469 9.7095L399.707 9.59998L399.944 9.49046L400.182 9.38093L400.419 9.27141L400.657 9.16189L400.894 9.05236L401.132 8.94284L401.37 8.83332L401.607 8.72379L401.845 8.61427L402.082 8.50475L402.32 8.39522L402.557 8.2857L402.795 8.17618L403.033 8.06665L403.27 7.95713L403.508 7.84761L403.745 7.73808L403.983 7.62856L404.22 7.51904L404.458 7.40951L404.696 7.29999L404.933 7.19047L405.171 7.08094L405.408 6.97142L405.646 6.8619L405.883 6.75237L406.121 6.64285L406.359 6.53333L406.596 6.4238L406.834 6.31428L407.071 6.20476L407.309 6.09523L407.546 5.98571L407.784 5.87619L408.021 5.76666L408.259 5.65714L408.497 5.54762L408.734 5.43809L408.972 5.32857L409.209 5.21905L409.447 5.10952L409.684 5L409.824 5.13773L409.964 5.27547L410.104 5.4132L410.244 5.55094L410.384 5.68867L410.524 5.82641L410.664 5.96414L410.804 6.10188L410.943 6.23961L411.083 6.37735L411.223 6.51508L411.363 6.65282L411.503 6.79055L411.643 6.92829L411.783 7.06602L411.923 7.20376L412.062 7.34149L412.202 7.47922L412.342 7.61696L412.482 7.75469L412.622 7.89243L412.762 8.03016L412.902 8.1679L413.042 8.30563L413.182 8.44337L413.321 8.5811L413.461 8.71884L413.601 8.85657L413.741 8.99431L413.881 9.13204L414.021 9.26978L414.161 9.40751L414.301 9.54524L414.44 9.68298L414.58 9.82071L414.72 9.95845L414.86 10.0962L415 10.2339L415.14 10.3717L415.28 10.5094L415.42 10.6471L415.56 10.7849L415.699 10.9226L415.839 11.0603L415.979 11.1981L416.119 11.3358L416.259 11.4735L416.399 11.6113L416.539 11.749L416.679 11.8867L416.818 12.0245L416.958 12.1622L417.098 12.2999L417.238 12.4377L417.378 12.5754L417.518 12.7131L417.658 12.8509L417.798 12.9886L417.938 13.1263L418.077 13.2641L418.217 13.4018L418.357 13.5396L418.497 13.6773L418.637 13.815L418.777 13.9528L418.917 14.0905L419.057 14.2282L419.196 14.366L419.336 14.5037L419.476 14.6414L419.616 14.7792L419.756 14.9169L419.896 15.0546L420.036 15.1924L420.176 15.3301L420.316 15.4678L420.455 15.6056L420.595 15.7433L420.735 15.881L420.875 16.0188L421.015 16.1565L421.155 16.2942L421.295 16.432L421.435 16.5697L421.574 16.7074L421.714 16.8452L421.854 16.9829L421.994 17.1207L422.134 17.2584L422.274 17.3961L422.414 17.5339L422.554 17.6716L422.694 17.8093L422.833 17.9471L422.973 18.0848L423.113 18.2225L423.253 18.3603L423.393 18.498L423.533 18.6357L423.673 18.7735L423.813 18.9112L423.952 19.0489L424.092 19.1867L424.232 19.3244L424.372 19.4621L424.512 19.5999L424.652 19.7376L424.792 19.8753L424.932 20.0131L425.072 20.1508L425.211 20.2886L425.351 20.4263L425.491 20.564L425.631 20.7018L425.771 20.8395L425.911 20.9772L426.051 21.115L426.191 21.2527L426.33 21.3904L426.47 21.5282L426.61 21.6659L426.75 21.8036L426.89 21.9414L427.03 22.0791L427.17 22.2168L427.31 22.3546L427.45 22.4923L427.589 22.63L427.729 22.7678L427.869 22.9055L428.009 23.0432L428.149 23.181L428.289 23.3187L428.429 23.4564L428.569 23.5942L428.708 23.7319L428.848 23.8697L428.988 24.0074L429.128 24.1451L429.268 24.2829L429.408 24.4206L429.548 24.5583L429.688 24.6961L429.828 24.8338L429.967 24.9715L430.107 25.1093L430.247 25.247L430.387 25.3847L430.527 25.5225L430.667 25.6602L430.807 25.7979L430.947 25.9357L431.086 26.0734L431.226 26.2111L431.366 26.3489L431.506 26.4866L431.646 26.6243L431.786 26.7621L431.926 26.8998L432.066 27.0376L432.206 27.1753L432.345 27.313L432.485 27.4508L432.625 27.5885L432.765 27.7262L432.905 27.864L433.045 28.0017L433.185 28.1394L433.325 28.2772L433.464 28.4149L433.604 28.5526L433.744 28.6904L433.884 28.8281L434.024 28.9658L434.164 29.1036L434.304 29.2413L434.444 29.379L434.584 29.5168L434.723 29.6545L434.863 29.7922L435.003 29.93L435.143 30.0677L435.283 30.2054L435.423 30.3432L435.563 30.4809L435.703 30.6187L435.842 30.7564L435.982 30.8941L436.122 31.0319L436.262 31.1696L436.402 31.3073L436.542 31.4451L436.682 31.5828L436.822 31.7205L436.962 31.8583L437.101 31.996L437.241 32.1337L437.381 32.2715L437.521 32.4092L437.661 32.5469L437.801 32.6847L437.941 32.8224L438.081 32.9601L438.22 33.0979L438.36 33.2356L438.5 33.3733L438.64 33.5111L438.78 33.6488L438.92 33.7865L439.06 33.9243L439.2 34.062L439.34 34.1998L439.479 34.3375L439.619 34.4752L439.759 34.613L439.899 34.7507L440.039 34.8884L440.179 35.0262L440.319 35.1639L440.459 35.3016L440.598 35.4394L440.738 35.5771L440.878 35.7148L441.018 35.8526L441.158 35.9903L441.298 36.128L441.438 36.2658L441.578 36.4035L441.718 36.5412L441.857 36.679L441.997 36.8167L442.137 36.9544L442.277 37.0922L442.417 37.2299L442.557 37.3677L442.697 37.5054L442.837 37.6431L442.977 37.7809L443.116 37.9186L443.256 38.0563L443.396 38.1941L443.536 38.3318L443.676 38.4695L443.816 38.6073L443.956 38.745L444.096 38.8827L444.235 39.0205L444.375 39.1582L444.515 39.2959L444.655 39.4337L444.795 39.5714L444.935 39.7091L445.075 39.8469L445.215 39.9846L445.355 40.1223L445.494 40.2601L445.634 40.3978L445.774 40.5355L445.914 40.6733L446.054 40.811L446.194 40.9488L446.334 41.0865L446.474 41.2242L446.613 41.362L446.753 41.4997L446.893 41.6374L447.033 41.7752L447.173 41.9129L447.313 42.0506L447.453 42.1884L447.593 42.3261L447.733 42.4638L447.872 42.6016L448.012 42.7393L448.152 42.877L448.292 43.0148L448.432 43.1525L448.572 43.2902L448.712 43.428L448.852 43.5657L448.991 43.7034L449.131 43.8412L449.271 43.9789L449.411 44.1167L449.551 44.2544L449.691 44.3921L449.831 44.5299L449.971 44.6676L450.111 44.8053L450.25 44.9431L450.39 45.0808L450.53 45.2185L450.67 45.3563L450.81 45.494L450.95 45.6317L451.09 45.7695L451.23 45.9072L451.369 46.0449L451.509 46.1827L451.649 46.3204L451.789 46.4581L451.929 46.5959L452.069 46.7336L452.209 46.8713L452.349 47.0091L452.489 47.1468L452.628 47.2845L452.768 47.4223L452.908 47.56L453.048 47.6978L453.188 47.8355L453.328 47.9732L453.468 48.111L453.608 48.2487L453.747 48.3864L453.887 48.5242L454.027 48.6619L454.167 48.7996L454.307 48.9374L454.447 49.0751L454.587 49.2128L454.727 49.3506L454.867 49.4883L455.006 49.626L455.146 49.7638L455.286 49.9015L455.426 50.0392L455.566 50.177L455.706 50.3147L455.846 50.4524L455.986 50.5902L456.125 50.7279L456.265 50.8657L456.405 51.0034L456.545 51.1411L456.685 51.2789L456.825 51.4166L456.965 51.5543L457.105 51.6921L457.245 51.8298L457.384 51.9675L457.524 52.1053L457.664 52.243L457.804 52.3807L457.944 52.5185L458.084 52.6562L458.224 52.7939L458.364 52.9317L458.503 53.0694L458.643 53.2071L458.783 53.3449L458.923 53.4826L459.063 53.6203L459.203 53.7581L459.343 53.8958L459.483 54.0335L459.623 54.1713L459.762 54.309L459.902 54.4468L460.042 54.5845L460.182 54.7222L460.322 54.86L460.462 54.9977L460.602 55.1354L460.742 55.2732L460.881 55.4109L461.021 55.5486L461.161 55.6864L461.301 55.8241L461.441 55.9618L461.581 56.0996L461.721 56.2373L461.861 56.375L462.001 56.5128L462.14 56.6505L462.28 56.7882L462.42 56.926L462.56 57.0637L462.7 57.2014L462.84 57.3392L462.98 57.4769L463.12 57.6147L463.259 57.7524L463.399 57.8901L463.539 58.0279L463.679 58.1656L463.819 58.3033L463.959 58.4411L464.099 58.5788L464.239 58.7165L464.379 58.8543L464.518 58.992L464.658 59.1297L464.798 59.2675L464.938 59.4052L465.078 59.5429L465.218 59.6807L465.358 59.8184L465.498 59.9561L465.637 60.0939L465.777 60.2316L465.917 60.3693L466.057 60.5071L466.197 60.6448L466.337 60.7825L466.477 60.9203L466.617 61.058L466.757 61.1958L466.896 61.3335L467.036 61.4712L467.176 61.609L467.316 61.7467L467.456 61.8844L467.596 62.0222L467.736 62.1599L467.876 62.2976L468.015 62.4354L468.155 62.5731L468.295 62.7108L468.435 62.8486L468.575 62.9863L468.715 63.124L468.855 63.2618L468.995 63.3995L469.135 63.5372L469.274 63.675L469.414 63.8127L469.554 63.9504L469.694 64.0882L469.834 64.2259L469.974 64.3637L470.114 64.5014L470.254 64.6391L470.393 64.7769L470.533 64.9146L470.673 65.0523L470.813 65.1901L470.953 65.3278L471.093 65.4655L471.233 65.6033L471.373 65.741L471.513 65.8787L471.652 66.0165L471.792 66.1542L471.932 66.2919L472.072 66.4297L472.212 66.5674L472.352 66.7051L472.492 66.8429L472.632 66.9806L472.771 67.1183L472.911 67.2561L473.051 67.3938L473.191 67.5315L473.331 67.6693L473.471 67.807L473.611 67.9448L473.751 68.0825L473.891 68.2202L474.03 68.358L474.17 68.4957L474.31 68.6334L474.45 68.7712L474.59 68.9089L474.73 69.0466L474.87 69.1844L475.01 69.3221L475.149 69.4598L475.289 69.5976L475.429 69.7353L475.569 69.873L475.709 70.0108L475.849 70.1485L475.989 70.2862L476.129 70.424L476.269 70.5617L476.408 70.6994L476.548 70.8372L476.688 70.9749L476.828 71.1127L476.968 71.2504L477.108 71.3881L477.248 71.5259L477.388 71.6636L477.527 71.8013L477.667 71.9391L477.807 72.0768L477.947 72.2145L478.087 72.3523L478.227 72.49L478.367 72.6277L478.507 72.7655L478.647 72.9032L478.786 73.0409L478.926 73.1787L479.066 73.3164L479.206 73.4541L479.346 73.5919L479.486 73.7296L479.626 73.8673L479.766 74.0051L479.905 74.1428L480.045 74.2805L480.185 74.4183L480.325 74.556L480.465 74.6938L480.605 74.8315L480.745 74.9692L480.885 75.107L481.025 75.2447L481.164 75.3824L481.304 75.5202L481.444 75.6579L481.584 75.7956L481.724 75.9334L481.864 76.0711L482.004 76.2088L482.144 76.3466L482.283 76.4843L482.423 76.622L482.563 76.7598L482.703 76.8975L482.843 77.0352L482.983 77.173L483.123 77.3107L483.263 77.4484L483.403 77.5862L483.542 77.7239L483.682 77.8617L483.822 77.9994L483.962 78.1371L484.102 78.2749L484.242 78.4126L484.382 78.5503L484.522 78.6881L484.661 78.8258L484.801 78.9635L484.941 79.1013L485.081 79.239L485.221 79.3767L485.361 79.5145L485.501 79.6522L485.641 79.7899L485.781 79.9277L485.92 80.0654L486.06 80.2031L486.2 80.3409L486.34 80.4786L486.48 80.6163L486.62 80.7541L486.76 80.8918L486.9 81.0295L487.039 81.1673L487.179 81.305L487.319 81.4428L487.459 81.5805L487.599 81.7182L487.739 81.856L487.879 81.9937L488.019 82.1314L488.159 82.2692L488.298 82.4069L488.438 82.5446L488.578 82.6824L488.718 82.8201L488.858 82.9578L488.998 83.0956L489.138 83.2333L489.278 83.371L489.417 83.5088L489.557 83.6465L489.697 83.7842L489.837 83.922L489.977 84.0597L490.117 84.1974L490.257 84.3352L490.397 84.4729L490.537 84.6106L490.676 84.7484L490.816 84.8861L490.956 85.0239L491.096 85.1616L491.236 85.2993L491.376 85.4371L491.516 85.5748L491.656 85.7125L491.795 85.8503L491.935 85.988L492.075 86.1257L492.215 86.2635L492.355 86.4012L492.495 86.5389L492.635 86.6767L492.775 86.8144L492.915 86.9521L493.054 87.0899L493.194 87.2276L493.334 87.3653L493.474 87.5031L493.614 87.6408L493.754 87.7785L493.894 87.9163L494.034 88.054L494.173 88.1918L494.313 88.3295L494.453 88.4672L494.593 88.605L494.733 88.7427L494.873 88.8804L495.013 89.0182L495.153 89.1559L495.293 89.2936L495.432 89.4314L495.572 89.5691L495.712 89.7068L495.852 89.8446L495.992 89.9823L496.132 90.12L496.272 90.2578L496.412 90.3955L496.551 90.5332L496.691 90.671L496.831 90.8087L496.971 90.9464L497.111 91.0842L497.251 91.2219L497.391 91.3596L497.531 91.4974L497.671 91.6351L497.81 91.7729L497.95 91.9106L498.09 92.0483L498.23 92.1861L498.37 92.3238L498.51 92.4615L498.65 92.5993L498.79 92.737L498.929 92.8747L499.069 93.0125L499.209 93.1502L499.349 93.2879L499.489 93.4257L499.629 93.5634L499.769 93.7011L499.909 93.8389L500.049 93.9766L500.188 94.1143L500.328 94.2521L500.468 94.3898L500.608 94.5275L500.748 94.6653L500.888 94.803L501.028 94.9408L501.168 95.0785L501.307 95.2162L501.447 95.354L501.587 95.4917L501.727 95.6294L501.867 95.7672L502.007 95.9049L502.147 96.0426L502.287 96.1804L502.427 96.3181L502.566 96.4558L502.706 96.5936L502.846 96.7313L502.986 96.869L503.126 97.0068L503.266 97.1445L503.406 97.2822L503.546 97.42L503.686 97.5577L503.825 97.6954L503.965 97.8332L504.105 97.9709L504.245 98.1086L504.385 98.2464L504.525 98.3841L504.665 98.5219L504.805 98.6596L504.944 98.7973L505.084 98.9351L505.224 99.0728L505.364 99.2105L505.504 99.3483L505.644 99.486L505.784 99.6237L505.924 99.7615L506.064 99.8992L506.203 100.037L506.343 100.175L506.483 100.312L506.623 100.45L506.763 100.588L506.903 100.726L507.043 100.863L507.183 101.001L507.322 101.139L507.462 101.277L507.602 101.414L507.742 101.552L507.882 101.69L508.022 101.827L508.162 101.965L508.302 102.103L508.442 102.241L508.581 102.378L508.721 102.516L508.861 102.654L509.001 102.792L509.141 102.929L509.281 103.067L509.421 103.205L509.561 103.343L509.7 103.48L509.84 103.618L509.98 103.756L510.12 103.894L510.26 104.031L510.4 104.169L510.54 104.307L510.68 104.444L510.82 104.582L510.959 104.72L511.099 104.858L511.239 104.995L511.379 105.133L511.519 105.271L511.659 105.409L511.799 105.546L511.939 105.684L512.078 105.822L512.218 105.96L512.358 106.097L512.498 106.235L512.638 106.373L512.778 106.51L512.918 106.648L513.058 106.786L513.198 106.924L513.337 107.061L513.477 107.199L513.617 107.337L513.757 107.475L513.897 107.612L514.037 107.75L514.177 107.888L514.317 108.026L514.456 108.163L514.596 108.301L514.736 108.439L514.876 108.576L515.016 108.714L515.156 108.852L515.296 108.99L515.436 109.127L515.576 109.265L515.715 109.403L515.855 109.541L515.995 109.678L516.135 109.816L516.275 109.954L516.415 110.092L516.555 110.229L516.695 110.367L516.834 110.505L516.974 110.643L517.114 110.78L517.254 110.918L517.394 111.056L517.534 111.193L517.674 111.331L517.814 111.469L517.954 111.607L518.093 111.744L518.233 111.882L518.373 112.02L518.513 112.158L518.653 112.295L518.793 112.433L518.933 112.571L519.073 112.709L519.212 112.846L519.352 112.984L519.492 113.122L519.632 113.259L519.772 113.397L519.912 113.535L520.052 113.673L520.192 113.81L520.332 113.948L520.471 114.086L520.611 114.224L520.751 114.361L520.891 114.499L521.031 114.637L521.171 114.775L521.311 114.912L521.451 115.05L521.59 115.188L521.73 115.325L521.87 115.463L522.01 115.601L522.15 115.739L522.29 115.876L522.43 116.014L522.57 116.152L522.71 116.29L522.849 116.427L522.989 116.565L523.129 116.703L523.269 116.841L523.409 116.978L523.549 117.116L523.689 117.254L523.829 117.392L523.968 117.529L524.108 117.667L524.248 117.805L524.388 117.942L524.528 118.08L524.668 118.218L524.808 118.356L524.948 118.493L525.088 118.631L525.227 118.769L525.367 118.907L525.507 119.044L525.647 119.182L525.787 119.32L525.927 119.458L526.067 119.595L526.207 119.733L526.346 119.871L526.486 120.008L526.626 120.146L526.766 120.284L526.906 120.422L527.046 120.559L527.186 120.697L527.326 120.835L527.466 120.973L527.605 121.11L527.745 121.248L527.885 121.386L528.025 121.524L528.165 121.661L528.305 121.799L528.445 121.937L528.585 122.074L528.724 122.212L528.864 122.35L529.004 122.488L529.144 122.625L529.284 122.763L529.424 122.901L529.564 123.039L529.704 123.176L529.844 123.314L529.983 123.452L530.123 123.59L530.263 123.727L530.403 123.865L530.543 124.003L530.683 124.141L530.823 124.278L530.963 124.416L531.102 124.554L531.242 124.691L531.382 124.829L531.522 124.967L531.662 125.105L531.802 125.242L531.942 125.38L532.082 125.518L532.222 125.656L532.361 125.793L532.501 125.931L532.641 126.069L532.781 126.207L532.921 126.344L533.061 126.482L533.201 126.62L533.341 126.757L533.48 126.895L533.62 127.033L533.76 127.171L533.9 127.308L534.04 127.446L534.18 127.584L534.32 127.722L534.46 127.859L534.6 127.997L534.739 128.135L534.879 128.273L535.019 128.41L535.159 128.548L535.299 128.686L535.439 128.823L535.579 128.961L535.719 129.099L535.858 129.237L535.998 129.374L536.138 129.512L536.278 129.65L536.418 129.788L536.558 129.925L536.698 130.063L536.838 130.201L536.978 130.339L537.117 130.476L537.257 130.614L537.397 130.752L537.537 130.89L537.677 131.027L537.817 131.165L537.957 131.303L538.097 131.44L538.236 131.578L538.376 131.716L538.516 131.854L538.656 131.991L538.796 132.129L538.936 132.267L539.076 132.405L539.216 132.542L539.356 132.68L539.495 132.818L539.635 132.956L539.775 133.093L539.915 133.231L540.055 133.369L540.195 133.506L540.335 133.644L540.475 133.782L540.614 133.92L540.754 134.057L540.894 134.195L541.034 134.333L541.174 134.471L541.314 134.608L541.454 134.746L541.594 134.884L541.734 135.022L541.873 135.159L542.013 135.297L542.153 135.435L542.293 135.572L542.433 135.71L542.573 135.848L542.713 135.986L542.853 136.123L542.992 136.261L543.132 136.399L543.272 136.537L543.412 136.674L543.552 136.812L543.692 136.95L543.832 137.088L543.972 137.225L544.112 137.363L544.251 137.501L544.391 137.639L544.531 137.776L544.671 137.914L544.811 138.052L544.951 138.189L545.091 138.327L545.231 138.465L545.37 138.603L545.51 138.74L545.65 138.878L545.79 139.016L545.93 139.154L546.07 139.291L546.21 139.429L546.35 139.567L546.49 139.705L546.629 139.842L546.769 139.98L546.909 140.118L547.049 140.255L547.189 140.393L547.329 140.531L547.469 140.669L547.609 140.806L547.748 140.944L547.888 141.082L548.028 141.22L548.168 141.357L548.308 141.495L548.448 141.633L548.588 141.771L548.728 141.908L548.868 142.046L549.007 142.184L549.147 142.321L549.287 142.459L549.427 142.597L549.567 142.735L549.707 142.872L549.847 143.01L549.987 143.148L550.126 143.286L550.266 143.423L550.406 143.561L550.546 143.699L550.686 143.837L550.826 143.974L550.966 144.112L551.106 144.25L551.246 144.388L551.385 144.525L551.525 144.663L551.665 144.801L551.805 144.938L551.945 145.076L552.085 145.214L552.225 145.352L552.365 145.489L552.504 145.627L552.644 145.765L552.784 145.903L552.924 146.04L552.787 146.179L552.65 146.319L552.513 146.458L552.376 146.597L552.239 146.736L552.102 146.875L551.965 147.014L551.828 147.153L551.691 147.293L551.554 147.432L551.417 147.571L551.28 147.71L551.143 147.849L551.006 147.988L550.869 148.127L550.732 148.267L550.595 148.406L550.458 148.545L550.321 148.684L550.184 148.823L550.047 148.962L549.91 149.102L549.773 149.241L549.636 149.38L549.499 149.519L549.362 149.658L549.225 149.797L549.088 149.936L548.951 150.076L548.814 150.215L548.677 150.354L548.54 150.493L548.403 150.632L548.266 150.771L548.129 150.91L547.992 151.05L547.855 151.189L547.718 151.328L547.581 151.467L547.444 151.606L547.307 151.745L547.17 151.884L547.033 152.024L546.896 152.163L546.759 152.302L546.622 152.441L546.485 152.58L546.348 152.719L546.211 152.858L546.074 152.998L545.937 153.137L545.8 153.276L545.663 153.415L545.526 153.554L545.389 153.693L545.252 153.832L545.115 153.972L544.978 154.111L544.841 154.25L544.704 154.389L544.567 154.528L544.43 154.667L544.293 154.806L544.156 154.946L544.019 155.085L543.882 155.224L543.745 155.363L543.608 155.502L543.471 155.641L543.334 155.78L543.197 155.92L543.06 156.059L542.923 156.198L542.785 156.337L542.648 156.476L542.511 156.615L542.374 156.754L542.237 156.894L542.1 157.033L541.963 157.172L541.826 157.311L541.689 157.45L541.552 157.589L541.415 157.729L541.278 157.868L541.141 158.007L541.004 158.146L540.867 158.285L540.73 158.424L540.593 158.563L540.456 158.703L540.319 158.842L540.182 158.981L540.045 159.12L539.908 159.259L539.771 159.398L539.634 159.537L539.497 159.677L539.36 159.816L539.223 159.955L539.086 160.094L538.949 160.233L538.812 160.372L538.675 160.511L538.538 160.651L538.401 160.79L538.264 160.929L538.127 161.068L537.99 161.207L537.853 161.346L537.716 161.485L537.579 161.625L537.442 161.764L537.305 161.903L537.168 162.042L537.031 162.181L536.894 162.32L536.757 162.459L536.62 162.599L536.483 162.738L536.346 162.877L536.209 163.016L536.072 163.155L535.935 163.294L535.798 163.433L535.661 163.573L535.524 163.712L535.387 163.851L535.25 163.99L535.113 164.129L534.976 164.268L534.839 164.407L534.702 164.547L534.565 164.686L534.428 164.825L534.291 164.964L534.154 165.103L534.017 165.242L533.88 165.381L533.743 165.521L533.606 165.66L533.469 165.799L533.332 165.938L533.195 166.077L533.058 166.216L532.921 166.356L532.784 166.495L532.647 166.634L532.51 166.773L532.373 166.912L532.236 167.051L532.099 167.19L531.962 167.33L531.825 167.469L531.688 167.608L531.551 167.747L531.414 167.886L531.277 168.025L531.14 168.164L531.003 168.304L530.866 168.443L530.729 168.582L530.592 168.721L530.455 168.86L530.318 168.999L530.181 169.138L530.044 169.278L529.907 169.417L529.77 169.556L529.633 169.695L529.496 169.834L529.359 169.973L529.222 170.112L529.085 170.252L528.948 170.391L528.811 170.53L528.674 170.669L528.537 170.808L528.4 170.947L528.263 171.086L528.126 171.226L527.989 171.365L527.852 171.504L527.715 171.643L527.578 171.782L527.441 171.921L527.304 172.06L527.166 172.2L527.029 172.339L526.892 172.478L526.755 172.617L526.618 172.756L526.481 172.895L526.344 173.034L526.207 173.174L526.07 173.313L525.933 173.452L525.796 173.591L525.659 173.73L525.522 173.869L525.385 174.008L525.248 174.148L525.111 174.287L524.974 174.426L524.837 174.565L524.7 174.704L524.563 174.843L524.426 174.983L524.289 175.122L524.152 175.261L524.015 175.4L523.878 175.539L523.741 175.678L523.604 175.817L523.467 175.957L523.33 176.096L523.193 176.235L523.056 176.374L522.919 176.513L522.782 176.652L522.645 176.791L522.508 176.931L522.371 177.07L522.234 177.209L522.097 177.348L521.96 177.487L521.823 177.626L521.686 177.765L521.549 177.905L521.412 178.044L521.275 178.183L521.138 178.322L521.001 178.461L520.864 178.6L520.727 178.739L520.59 178.879L520.453 179.018L520.316 179.157L520.179 179.296L520.042 179.435L519.905 179.574L519.768 179.713L519.631 179.853L519.494 179.992L519.357 180.131L519.22 180.27L519.083 180.409L518.946 180.548L518.809 180.687L518.672 180.827L518.535 180.966L518.398 181.105L518.261 181.244L518.124 181.383L517.987 181.522L517.85 181.661L517.713 181.801L517.576 181.94L517.439 182.079L517.302 182.218L517.165 182.357L517.028 182.496L516.891 182.635L516.754 182.775L516.617 182.914L516.48 183.053L516.343 183.192L516.206 183.331L516.069 183.47L515.932 183.61L515.795 183.749L515.658 183.888L515.521 184.027L515.384 184.166L515.247 184.305L515.11 184.444L514.973 184.584L514.836 184.723L514.699 184.862L514.562 185.001L514.425 185.14L514.288 185.279L514.151 185.418L514.014 185.558L513.877 185.697L513.74 185.836L513.603 185.975L513.466 186.114L513.329 186.253L513.192 186.392L513.055 186.532L512.918 186.671L512.781 186.81L512.644 186.949L512.507 187.088L512.37 187.227L512.233 187.366L512.096 187.506L511.959 187.645L511.822 187.784L511.685 187.923L511.548 188.062L511.41 188.201L511.273 188.34L511.136 188.48L510.999 188.619L510.862 188.758L510.725 188.897L510.588 189.036L510.451 189.175L510.314 189.314L510.177 189.454L510.04 189.593L509.903 189.732L509.766 189.871L509.629 190.01L509.492 190.149L509.355 190.288L509.218 190.428L509.081 190.567L508.944 190.706L508.807 190.845L508.67 190.984L508.533 191.123L508.396 191.262L508.259 191.402L508.122 191.541L507.985 191.68L507.848 191.819L507.711 191.958L507.574 192.097L507.437 192.237L507.3 192.376L507.163 192.515L507.026 192.654L506.889 192.793L506.752 192.932L506.615 193.071L506.478 193.211L506.341 193.35L506.204 193.489L506.067 193.628L505.93 193.767L505.793 193.906L505.656 194.045L505.519 194.185L505.382 194.324L505.245 194.463L505.108 194.602L504.971 194.741L504.834 194.88L504.697 195.019L504.56 195.159L504.423 195.298L504.286 195.437L504.149 195.576L504.012 195.715L503.875 195.854L503.738 195.993L503.601 196.133L503.464 196.272L503.327 196.411L503.19 196.55L503.053 196.689L502.916 196.828L502.779 196.967L502.642 197.107L502.505 197.246L502.368 197.385L502.231 197.524L502.094 197.663L501.957 197.802L501.82 197.941L501.683 198.081L501.546 198.22L501.409 198.359L501.272 198.498L501.135 198.637L500.998 198.776L500.861 198.915L500.724 199.055L500.587 199.194L500.45 199.333L500.313 199.472L500.176 199.611L500.039 199.75L499.902 199.889L499.765 200.029L499.628 200.168L499.491 200.307L499.354 200.446L499.217 200.585L499.08 200.724L498.943 200.864L498.806 201.003L498.669 201.142L498.532 201.281L498.395 201.42L498.258 201.559L498.121 201.698L497.984 201.838L497.847 201.977L497.71 202.116L497.573 202.255L497.436 202.394L497.299 202.533L497.162 202.672L497.025 202.812L496.888 202.951L496.751 203.09L496.614 203.229L496.477 203.368L496.34 203.507L496.203 203.646L496.066 203.786L495.929 203.925L495.792 204.064L495.654 204.203L495.517 204.342L495.38 204.481L495.243 204.62L495.106 204.76L494.969 204.899L494.832 205.038L494.695 205.177L494.558 205.316L494.421 205.455L494.284 205.594L494.147 205.734L494.01 205.873L493.873 206.012L493.736 206.151L493.599 206.29L493.462 206.429L493.325 206.568L493.188 206.708L493.051 206.847L492.914 206.986L492.777 207.125L492.64 207.264L492.503 207.403L492.366 207.542L492.229 207.682L492.092 207.821L491.955 207.96L491.818 208.099L491.681 208.238L491.544 208.377L491.407 208.516L491.27 208.656L491.133 208.795L490.996 208.934L490.859 209.073L490.722 209.212L490.585 209.351L490.448 209.49L490.311 209.63L490.174 209.769L490.037 209.908L489.9 210.047L489.763 210.186L489.626 210.325L489.489 210.465L489.352 210.604L489.215 210.743L489.078 210.882L488.941 211.021L488.804 211.16L488.667 211.299L488.53 211.439L488.393 211.578L488.256 211.717L488.119 211.856L487.982 211.995L487.845 212.134L487.708 212.273L487.571 212.413L487.434 212.552L487.297 212.691L487.16 212.83L487.023 212.969L486.886 213.108L486.749 213.247L486.612 213.387L486.475 213.526L486.338 213.665L486.201 213.804L486.064 213.943L485.927 214.082L485.79 214.221L485.653 214.361L485.516 214.5L485.379 214.639L485.242 214.778L485.105 214.917L484.968 215.056L484.831 215.195L484.694 215.335L484.557 215.474L484.42 215.613L484.283 215.752L484.146 215.891L484.009 216.03L483.872 216.169L483.735 216.309L483.598 216.448L483.461 216.587L483.324 216.726L483.187 216.865L483.05 217.004L482.913 217.143L482.776 217.283L482.639 217.422L482.502 217.561L482.365 217.7L482.228 217.839L482.091 217.978L481.954 218.117L481.817 218.257L481.68 218.396L481.543 218.535L481.406 218.674L481.269 218.813L481.132 218.952L480.995 219.092L480.858 219.231L480.721 219.37L480.584 219.509L480.447 219.648L480.31 219.787L480.173 219.926L480.035 220.066L479.898 220.205L479.761 220.344L479.624 220.483L479.487 220.622L479.35 220.761L479.213 220.9L479.076 221.04L478.939 221.179L478.802 221.318L478.665 221.457L478.528 221.596L478.391 221.735L478.254 221.874L478.117 222.014L477.98 222.153L477.843 222.292L477.706 222.431L477.569 222.57L477.432 222.709L477.295 222.848L477.158 222.988L477.021 223.127L476.884 223.266L476.747 223.405L476.61 223.544L476.473 223.683L476.336 223.822L476.199 223.962L476.062 224.101L475.925 224.24L475.788 224.379L475.651 224.518L475.514 224.657L475.377 224.796L475.24 224.936L475.103 225.075L474.966 225.214L474.829 225.353L474.692 225.492L474.555 225.631L474.418 225.77L474.281 225.91L474.144 226.049L474.007 226.188L473.87 226.327L473.733 226.466L473.596 226.605L473.459 226.744L473.322 226.884L473.185 227.023L473.048 227.162L472.911 227.301L472.774 227.44L472.637 227.579L472.5 227.719L472.363 227.858L472.226 227.997L472.089 228.136L471.952 228.275L471.815 228.414L471.678 228.553L471.541 228.693L471.404 228.832L471.267 228.971L471.13 229.11L470.993 229.249L470.856 229.388L470.719 229.527L470.582 229.667L470.445 229.806L470.308 229.945L470.171 230.084L470.034 230.223L469.897 230.362L469.76 230.501L469.623 230.641L469.486 230.78L469.349 230.919L469.212 231.058L469.075 231.197L468.938 231.336L468.801 231.475L468.664 231.615L468.527 231.754L468.39 231.893L468.253 232.032L468.116 232.171L467.979 232.31L467.842 232.449L467.705 232.589L467.568 232.728L467.431 232.867L467.294 233.006L467.157 233.145L467.02 233.284L466.883 233.423L466.746 233.563L466.609 233.702L466.472 233.841L466.335 233.98L466.198 234.119L466.061 234.258L465.924 234.397L465.787 234.537L465.65 234.676L465.513 234.815L465.376 234.954L465.239 235.093L465.102 235.232L464.965 235.371L464.828 235.511L464.691 235.65L464.554 235.789L464.417 235.928L464.279 236.067L464.142 236.206L464.005 236.346L463.868 236.485L463.731 236.624L463.594 236.763L463.457 236.902L463.32 237.041L463.183 237.18L463.046 237.32L462.909 237.459L462.772 237.598L462.635 237.737L462.498 237.876L462.361 238.015L462.224 238.154L462.087 238.294L461.95 238.433L461.813 238.572L461.676 238.711L461.539 238.85L461.402 238.989L461.265 239.128L461.128 239.268L460.991 239.407L460.854 239.546L460.717 239.685L460.58 239.824L460.443 239.963L460.306 240.102L460.169 240.242L460.032 240.381L459.895 240.52L459.758 240.659L459.621 240.798L459.484 240.937L459.347 241.076L459.21 241.216L459.073 241.355L458.936 241.494L458.799 241.633L458.662 241.772L458.525 241.911L458.388 242.05L458.251 242.19L458.114 242.329L457.977 242.468L457.84 242.607L457.703 242.746L457.566 242.885L457.429 243.024L457.292 243.164L457.155 243.303L457.018 243.442L456.881 243.581L456.744 243.72L456.607 243.859L456.47 243.998L456.333 244.138L456.196 244.277L456.059 244.416L455.922 244.555L455.785 244.694L455.648 244.833L455.511 244.973L455.374 245.112L455.237 245.251L455.1 245.39L454.963 245.529L454.826 245.668L454.689 245.807L454.552 245.947L454.415 246.086L454.278 246.225L454.141 246.364L454.004 246.503L453.867 246.642L453.73 246.781L453.593 246.921L453.456 247.06L453.319 247.199L453.182 247.338L453.045 247.477L452.908 247.616L452.771 247.755L452.634 247.895L452.497 248.034L452.36 248.173L452.223 248.312L452.086 248.451L451.949 248.59L451.812 248.729L451.675 248.869L451.538 249.008L451.401 249.147L451.264 249.286L451.127 249.425L450.99 249.564L450.853 249.703L450.716 249.843L450.579 249.982L450.442 250.121L450.305 250.26L450.168 250.399L450.031 250.538L449.894 250.677L449.757 250.817L449.62 250.956L449.483 251.095L449.346 251.234L449.209 251.373L449.072 251.512L448.935 251.651L448.798 251.791L448.661 251.93L448.523 252.069L448.386 252.208L448.249 252.347L448.112 252.486L447.975 252.625L447.838 252.765L447.701 252.904L447.564 253.043L447.427 253.182L447.29 253.321L447.153 253.46L447.016 253.6L446.879 253.739L446.742 253.878L446.605 254.017L446.468 254.156L446.331 254.295L446.194 254.434L446.057 254.574L445.92 254.713L445.783 254.852L445.646 254.991L445.509 255.13L445.372 255.269L445.235 255.408L445.098 255.548L444.961 255.687L444.824 255.826L444.687 255.965L444.55 256.104L444.413 256.243L444.276 256.382L444.139 256.522L444.002 256.661L443.865 256.8L443.728 256.939L443.591 257.078L443.454 257.217L443.317 257.356L443.18 257.496L443.043 257.635L442.906 257.774L442.769 257.913L442.632 258.052L442.495 258.191L442.358 258.33L442.221 258.47L442.084 258.609L441.947 258.748L441.81 258.887L441.673 259.026L441.536 259.165L441.399 259.304L441.262 259.444L441.125 259.583L440.988 259.722L440.851 259.861L440.714 260L440.577 260.139L440.44 260.278L440.303 260.418L440.166 260.557L440.029 260.696L439.892 260.835L439.755 260.974L439.618 261.113L439.481 261.252L439.344 261.392L439.207 261.531L439.07 261.67L438.933 261.809L438.796 261.948L438.659 262.087L438.522 262.227L438.385 262.366L438.248 262.505L438.111 262.644L437.974 262.783L437.837 262.922L437.7 263.061L437.563 263.201L437.426 263.34L437.289 263.479L437.152 263.618L437.015 263.757L436.878 263.896L436.741 264.035L436.604 264.175L436.467 264.314L436.33 264.453L436.193 264.592L436.056 264.731L435.919 264.87L435.782 265.009L435.645 265.149L435.508 265.288L435.371 265.427L435.234 265.566L435.097 265.705L434.96 265.844L434.823 265.983L434.686 266.123L434.549 266.262L434.412 266.401L434.275 266.54L434.138 266.679L434.001 266.818L433.864 266.957L433.727 267.097L433.59 267.236L433.453 267.375L433.316 267.514L433.179 267.653L433.042 267.792L432.905 267.931L432.767 268.071L432.63 268.21L432.493 268.349L432.356 268.488L432.219 268.627L432.082 268.766L431.945 268.905L431.808 269.045L431.671 269.184L431.534 269.323L431.397 269.462L431.26 269.601L431.123 269.74L430.986 269.879L430.849 270.019L430.712 270.158L430.575 270.297L430.438 270.436L430.301 270.575L430.164 270.714L430.027 270.853L429.89 270.993L429.753 271.132L429.616 271.271L429.479 271.41L429.342 271.549L429.205 271.688L429.068 271.828L428.931 271.967L428.794 272.106L428.657 272.245L428.52 272.384L428.383 272.523L428.246 272.662L428.109 272.802L427.972 272.941L427.835 273.08L427.698 273.219L427.561 273.358L427.424 273.497L427.287 273.636L427.15 273.776L427.013 273.915L426.876 274.054L426.739 274.193L426.602 274.332L426.465 274.471L426.328 274.61L426.191 274.75L426.054 274.889L425.917 275.028L425.78 275.167L425.643 275.306L425.506 275.445L425.369 275.584L425.232 275.724L425.095 275.863L424.958 276.002L424.821 276.141L424.684 276.28L424.547 276.419L424.41 276.558L424.273 276.698L424.136 276.837L423.999 276.976L423.862 277.115L423.725 277.254L423.588 277.393L423.451 277.532L423.314 277.672L423.177 277.811L423.04 277.95L422.903 278.089L422.766 278.228L422.629 278.367L422.492 278.506L422.355 278.646L422.218 278.785L422.081 278.924L421.944 279.063L421.807 279.202L421.67 279.341L421.533 279.48L421.396 279.62L420.99 280.032L420.584 280.444L420.179 280.856L419.773 281.268L419.367 281.68L418.961 282.092L418.556 282.504L418.15 282.916L417.744 283.328L417.339 283.74L416.933 284.152L416.527 284.564L416.121 284.976L415.716 285.388L415.31 285.8L414.904 286.212L398.99 280.269L383.076 274.325L367.162 268.381" fill="#000000" fill-rule="nonzero" opacity="1" stroke="none"/>
</g>
</svg>
